<svg version="1.1" id="Layer_1" xmlns="http://www.w3.org/2000/svg" xmlns:xlink="http://www.w3.org/1999/xlink" x="0px" y="0px"
	 width="100%" viewBox="0 0 872 614" enable-background="new 0 0 872 614" xml:space="preserve">
<path fill="#FFFFFF" opacity="1.000000" stroke="none" 
	d="
M629.000000,615.000000 
	C419.333344,615.000000 210.166672,615.000000 1.000000,615.000000 
	C1.000000,410.333344 1.000000,205.666672 1.000000,1.000000 
	C291.666656,1.000000 582.333313,1.000000 873.000000,1.000000 
	C873.000000,205.666672 873.000000,410.333344 873.000000,615.000000 
	C791.833313,615.000000 710.666687,615.000000 629.000000,615.000000 
M617.499939,532.307739 
	C649.989136,532.307434 682.478271,532.315918 714.967468,532.300171 
	C722.348328,532.296631 722.998352,531.622864 722.998474,524.326172 
	C723.000549,376.042786 723.000854,227.759369 722.997559,79.475975 
	C722.997375,72.416512 721.592102,71.003937 714.538086,71.003296 
	C650.892883,70.997528 587.247559,70.961060 523.602539,71.069481 
	C518.148254,71.078766 512.563049,71.485535 507.263824,72.694397 
	C473.595337,80.374756 451.941925,107.719772 451.924561,142.671234 
	C451.858673,275.293182 451.896606,407.915222 451.910736,540.537231 
	C451.910889,541.897644 452.112427,543.258118 452.254456,545.055298 
	C469.697021,534.737488 488.346344,532.309570 507.536560,532.308411 
	C543.857666,532.306152 580.178772,532.307861 617.499939,532.307739 
M422.208160,495.500031 
	C422.208160,420.346405 422.208374,345.192749 422.208069,270.039124 
	C422.207886,228.212967 421.800812,186.381729 422.323944,144.562119 
	C422.817383,105.117172 388.924438,70.206596 348.370422,70.770325 
	C285.726624,71.641113 223.061783,70.999382 160.405869,71.000313 
	C151.577805,71.000443 151.000778,71.567726 151.000717,80.266586 
	C150.999786,227.741287 150.999878,375.215973 151.000351,522.690674 
	C151.000381,532.007812 151.288620,532.305786 160.500870,532.306152 
	C229.322403,532.308716 298.144623,532.156311 366.964691,532.474976 
	C377.017670,532.521484 387.208954,534.124634 397.062469,536.266846 
	C405.532440,538.108276 413.611267,541.748962 422.208252,544.713135 
	C422.208252,528.467773 422.208252,512.483887 422.208160,495.500031 
z"/>
<path fill="#893B43" opacity="1.000000" stroke="none" 
	d="
M616.999878,532.307800 
	C580.178772,532.307861 543.857666,532.306152 507.536560,532.308411 
	C488.346344,532.309570 469.697021,534.737488 452.254456,545.055298 
	C452.112427,543.258118 451.910889,541.897644 451.910736,540.537231 
	C451.896606,407.915222 451.858673,275.293182 451.924561,142.671234 
	C451.941925,107.719772 473.595337,80.374756 507.263824,72.694397 
	C512.563049,71.485535 518.148254,71.078766 523.602539,71.069481 
	C587.247559,70.961060 650.892883,70.997528 714.538086,71.003296 
	C721.592102,71.003937 722.997375,72.416512 722.997559,79.475975 
	C723.000854,227.759369 723.000549,376.042786 722.998474,524.326172 
	C722.998352,531.622864 722.348328,532.296631 714.967468,532.300171 
	C682.478271,532.315918 649.989136,532.307434 616.999878,532.307800 
M575.500000,323.913177 
	C602.649841,323.913086 629.799622,323.915253 656.949463,323.907288 
	C658.613586,323.906799 660.297607,323.976105 661.938354,323.757477 
	C669.756470,322.715698 674.989258,316.878143 675.047607,309.252960 
	C675.106812,301.512970 670.118164,295.701447 662.254639,294.516510 
	C660.292542,294.220795 658.273438,294.224945 656.280518,294.224274 
	C610.975281,294.209259 565.669983,294.207123 520.364746,294.229919 
	C518.209961,294.230988 516.014404,294.263977 513.907654,294.656525 
	C505.207367,296.277679 500.291412,303.728210 502.066345,312.390594 
	C503.521576,319.492645 509.465485,323.867737 518.035034,323.893951 
	C536.856506,323.951538 555.678345,323.912659 575.500000,323.913177 
M557.500000,155.943588 
	C543.839111,155.949661 530.176941,155.843979 516.517944,156.007645 
	C509.391998,156.093002 502.852997,162.058594 501.943481,168.775284 
	C500.994812,175.780716 504.892181,182.553711 511.462982,184.462891 
	C514.273621,185.279510 517.380310,185.300034 520.352905,185.303192 
	C565.667053,185.351425 610.981323,185.339737 656.295532,185.327072 
	C658.291199,185.326508 660.310303,185.350342 662.278320,185.075485 
	C668.959106,184.142578 674.781616,177.656387 675.030090,171.029877 
	C675.290100,164.098038 670.678284,157.867157 663.916138,156.360764 
	C661.835815,155.897308 659.614929,155.961212 657.458313,155.959732 
	C624.472229,155.937134 591.486084,155.943756 557.500000,155.943588 
M630.500000,432.825958 
	C592.862610,432.827026 555.225220,432.793884 517.587952,432.852722 
	C507.886780,432.867889 501.744965,438.768524 501.808716,447.646881 
	C501.870636,456.273590 507.981934,462.120911 517.389954,462.132294 
	C564.686279,462.189514 611.982910,462.189056 659.279236,462.131378 
	C667.985413,462.120789 674.982056,455.404175 675.046082,447.394592 
	C675.113525,438.953064 668.784973,432.954651 659.477966,432.853638 
	C650.153015,432.752380 640.826050,432.827881 630.500000,432.825958 
z"/>
<path fill="#893B43" opacity="1.000000" stroke="none" 
	d="
M422.208191,496.000061 
	C422.208252,512.483887 422.208252,528.467773 422.208252,544.713135 
	C413.611267,541.748962 405.532440,538.108276 397.062469,536.266846 
	C387.208954,534.124634 377.017670,532.521484 366.964691,532.474976 
	C298.144623,532.156311 229.322403,532.308716 160.500870,532.306152 
	C151.288620,532.305786 151.000381,532.007812 151.000351,522.690674 
	C150.999878,375.215973 150.999786,227.741287 151.000717,80.266586 
	C151.000778,71.567726 151.577805,71.000443 160.405869,71.000313 
	C223.061783,70.999382 285.726624,71.641113 348.370422,70.770325 
	C388.924438,70.206596 422.817383,105.117172 422.323944,144.562119 
	C421.800812,186.381729 422.207886,228.212967 422.208069,270.039124 
	C422.208374,345.192749 422.208160,420.346405 422.208191,496.000061 
M327.500031,294.212341 
	C319.670258,294.212341 311.840454,294.212219 304.010681,294.212341 
	C274.690552,294.212799 245.370422,294.195770 216.050323,294.224945 
	C207.775864,294.233185 202.344513,297.498383 200.014099,303.671082 
	C196.065002,314.131287 203.408829,323.875244 215.470230,323.889374 
	C262.449005,323.944458 309.427948,323.940063 356.406586,323.845520 
	C359.333405,323.839600 362.372253,323.210754 365.158539,322.274902 
	C369.869324,320.692688 372.436646,317.061798 372.736755,312.122681 
	C373.394897,301.292023 366.904480,294.360901 355.987427,294.235107 
	C346.826111,294.129517 337.662598,294.212799 327.500031,294.212341 
M207.917908,461.039032 
	C211.031631,461.413818 214.144882,462.110260 217.259171,462.115051 
	C262.922180,462.185303 308.585297,462.165466 354.248413,462.156128 
	C356.246704,462.155701 358.264526,462.208618 360.239777,461.965118 
	C367.081360,461.121704 372.636230,455.610535 372.730011,449.720551 
	C372.897644,439.193512 366.781036,432.855865 356.136261,432.846008 
	C309.139984,432.802490 262.143616,432.810577 215.147293,432.844971 
	C206.793625,432.851105 201.596512,436.510223 199.609756,443.473175 
	C197.670853,450.268372 200.339157,456.373505 207.917908,461.039032 
M218.562012,185.336853 
	C263.354858,185.336823 308.147736,185.339279 352.940582,185.329178 
	C355.103119,185.328690 357.277252,185.339890 359.426025,185.135681 
	C366.542969,184.459259 371.657806,179.203568 372.229919,172.105179 
	C373.000488,162.543976 366.652740,155.973770 356.348145,155.964355 
	C309.224121,155.921310 262.100006,155.945618 214.975922,155.948853 
	C214.143738,155.948898 213.307358,155.941071 212.480011,156.015579 
	C202.706955,156.895782 196.671829,166.283737 199.889542,175.583282 
	C202.288116,182.515442 207.293747,185.274231 218.562012,185.336853 
z"/>
<path fill="#FDFCFC" opacity="1.000000" stroke="none" 
	d="
M575.000000,323.913147 
	C555.678345,323.912659 536.856506,323.951538 518.035034,323.893951 
	C509.465485,323.867737 503.521576,319.492645 502.066345,312.390594 
	C500.291412,303.728210 505.207367,296.277679 513.907654,294.656525 
	C516.014404,294.263977 518.209961,294.230988 520.364746,294.229919 
	C565.669983,294.207123 610.975281,294.209259 656.280518,294.224274 
	C658.273438,294.224945 660.292542,294.220795 662.254639,294.516510 
	C670.118164,295.701447 675.106812,301.512970 675.047607,309.252960 
	C674.989258,316.878143 669.756470,322.715698 661.938354,323.757477 
	C660.297607,323.976105 658.613586,323.906799 656.949463,323.907288 
	C629.799622,323.915253 602.649841,323.913086 575.000000,323.913147 
z"/>
<path fill="#FFFFFF" opacity="1.000000" stroke="none" 
	d="
M558.000000,155.943573 
	C591.486084,155.943756 624.472229,155.937134 657.458313,155.959732 
	C659.614929,155.961212 661.835815,155.897308 663.916138,156.360764 
	C670.678284,157.867157 675.290100,164.098038 675.030090,171.029877 
	C674.781616,177.656387 668.959106,184.142578 662.278320,185.075485 
	C660.310303,185.350342 658.291199,185.326508 656.295532,185.327072 
	C610.981323,185.339737 565.667053,185.351425 520.352905,185.303192 
	C517.380310,185.300034 514.273621,185.279510 511.462982,184.462891 
	C504.892181,182.553711 500.994812,175.780716 501.943481,168.775284 
	C502.852997,162.058594 509.391998,156.093002 516.517944,156.007645 
	C530.176941,155.843979 543.839111,155.949661 558.000000,155.943573 
z"/>
<path fill="#FFFFFF" opacity="1.000000" stroke="none" 
	d="
M631.000000,432.825928 
	C640.826050,432.827881 650.153015,432.752380 659.477966,432.853638 
	C668.784973,432.954651 675.113525,438.953064 675.046082,447.394592 
	C674.982056,455.404175 667.985413,462.120789 659.279236,462.131378 
	C611.982910,462.189056 564.686279,462.189514 517.389954,462.132294 
	C507.981934,462.120911 501.870636,456.273590 501.808716,447.646881 
	C501.744965,438.768524 507.886780,432.867889 517.587952,432.852722 
	C555.225220,432.793884 592.862610,432.827026 631.000000,432.825928 
z"/>
<path fill="#FDFCFC" opacity="1.000000" stroke="none" 
	d="
M328.000061,294.212402 
	C337.662598,294.212799 346.826111,294.129517 355.987427,294.235107 
	C366.904480,294.360901 373.394897,301.292023 372.736755,312.122681 
	C372.436646,317.061798 369.869324,320.692688 365.158539,322.274902 
	C362.372253,323.210754 359.333405,323.839600 356.406586,323.845520 
	C309.427948,323.940063 262.449005,323.944458 215.470230,323.889374 
	C203.408829,323.875244 196.065002,314.131287 200.014099,303.671082 
	C202.344513,297.498383 207.775864,294.233185 216.050323,294.224945 
	C245.370422,294.195770 274.690552,294.212799 304.010681,294.212341 
	C311.840454,294.212219 319.670258,294.212341 328.000061,294.212402 
z"/>
<path fill="#FFFFFF" opacity="1.000000" stroke="none" 
	d="
M207.542450,460.901672 
	C200.339157,456.373505 197.670853,450.268372 199.609756,443.473175 
	C201.596512,436.510223 206.793625,432.851105 215.147293,432.844971 
	C262.143616,432.810577 309.139984,432.802490 356.136261,432.846008 
	C366.781036,432.855865 372.897644,439.193512 372.730011,449.720551 
	C372.636230,455.610535 367.081360,461.121704 360.239777,461.965118 
	C358.264526,462.208618 356.246704,462.155701 354.248413,462.156128 
	C308.585297,462.165466 262.922180,462.185303 217.259171,462.115051 
	C214.144882,462.110260 211.031631,461.413818 207.542450,460.901672 
z"/>
<path fill="#FFFFFF" opacity="1.000000" stroke="none" 
	d="
M218.074432,185.336884 
	C207.293747,185.274231 202.288116,182.515442 199.889542,175.583282 
	C196.671829,166.283737 202.706955,156.895782 212.480011,156.015579 
	C213.307358,155.941071 214.143738,155.948898 214.975922,155.948853 
	C262.100006,155.945618 309.224121,155.921310 356.348145,155.964355 
	C366.652740,155.973770 373.000488,162.543976 372.229919,172.105179 
	C371.657806,179.203568 366.542969,184.459259 359.426025,185.135681 
	C357.277252,185.339890 355.103119,185.328690 352.940582,185.329178 
	C308.147736,185.339279 263.354858,185.336823 218.074432,185.336884 
z"/>
</svg>