<svg version="1.1" id="Layer_1" xmlns="http://www.w3.org/2000/svg" xmlns:xlink="http://www.w3.org/1999/xlink" x="0px" y="0px"
	 width="100%" viewBox="0 0 834 834" enable-background="new 0 0 834 834" xml:space="preserve">
<path fill="#FFFFFF" opacity="1.000000" stroke="none" 
	d="
M575.000000,835.000000 
	C383.333405,835.000000 192.166779,835.000000 1.000128,835.000000 
	C1.000085,557.000122 1.000085,279.000275 1.000043,1.000315 
	C278.999786,1.000210 556.999573,1.000210 834.999512,1.000105 
	C834.999634,278.999695 834.999634,556.999390 834.999817,834.999512 
	C748.500000,835.000000 662.000000,835.000000 575.000000,835.000000 
M611.499939,642.308167 
	C639.656982,642.307861 667.814087,642.317505 695.971130,642.300537 
	C703.349731,642.296082 703.998535,641.623535 703.998596,634.322998 
	C704.000671,486.039307 704.001099,337.755646 703.997742,189.471970 
	C703.997620,182.417786 702.589233,181.003677 695.534607,181.003036 
	C631.889221,180.997330 568.243835,180.946594 504.598541,181.018890 
	C463.440887,181.065628 432.953857,211.460785 432.928558,252.674805 
	C432.847137,385.297028 432.896576,517.919312 432.910492,650.541565 
	C432.910645,651.901245 433.113068,653.260864 433.242249,654.887512 
	C436.099579,653.442749 438.428497,652.183350 440.824280,651.067322 
	C455.484863,644.237488 471.110474,642.353577 487.041260,642.329590 
	C528.194031,642.267517 569.346985,642.308472 611.499939,642.308167 
M258.500000,180.999557 
	C219.340271,180.999573 180.180557,180.998383 141.020828,181.000565 
	C132.681641,181.001022 132.000732,181.692307 132.000671,190.151215 
	C131.999603,337.792938 131.999664,485.434631 132.000504,633.076355 
	C132.000549,641.917664 132.389847,642.305847 141.385712,642.306213 
	C210.040771,642.309082 278.695862,642.332153 347.350891,642.288574 
	C361.650299,642.279480 375.521027,644.498596 388.916931,649.535522 
	C393.544769,651.275635 398.147461,653.082520 403.208466,655.031006 
	C403.208466,652.744568 403.208466,650.925903 403.208466,649.107300 
	C403.208466,518.462708 403.208923,387.818146 403.204224,257.173553 
	C403.204132,255.007874 403.177582,252.840927 403.101898,250.676712 
	C401.755249,212.150970 369.603729,181.070694 330.987915,181.007019 
	C307.158661,180.967728 283.329315,180.999619 258.500000,180.999557 
z"/>
<path fill="#893B43" opacity="1.000000" stroke="none" 
	d="
M610.999878,642.308228 
	C569.346985,642.308472 528.194031,642.267517 487.041260,642.329590 
	C471.110474,642.353577 455.484863,644.237488 440.824280,651.067322 
	C438.428497,652.183350 436.099579,653.442749 433.242249,654.887512 
	C433.113068,653.260864 432.910645,651.901245 432.910492,650.541565 
	C432.896576,517.919312 432.847137,385.297028 432.928558,252.674805 
	C432.953857,211.460785 463.440887,181.065628 504.598541,181.018890 
	C568.243835,180.946594 631.889221,180.997330 695.534607,181.003036 
	C702.589233,181.003677 703.997620,182.417786 703.997742,189.471970 
	C704.001099,337.755646 704.000671,486.039307 703.998596,634.322998 
	C703.998535,641.623535 703.349731,642.296082 695.971130,642.300537 
	C667.814087,642.317505 639.656982,642.307861 610.999878,642.308228 
M523.500000,433.913177 
	C562.309387,433.912384 601.118896,433.943176 639.928162,433.888672 
	C649.635620,433.875031 655.972229,427.994476 656.047668,419.272888 
	C656.123962,410.448425 649.965332,404.286194 640.300232,404.265228 
	C592.996277,404.162659 545.691895,404.157318 498.387939,404.269287 
	C488.730743,404.292145 482.670105,410.492493 482.807434,419.384827 
	C482.939911,427.966217 489.115967,433.753937 498.515106,433.886780 
	C506.508606,433.999786 514.504944,433.912079 523.500000,433.913177 
M534.500000,265.943573 
	C522.171936,265.949646 509.842224,265.838257 497.516388,266.006927 
	C490.390533,266.104462 483.852051,272.060028 482.943298,278.776947 
	C481.995514,285.782349 485.893951,292.555450 492.464539,294.463593 
	C495.275330,295.279877 498.381958,295.299988 501.354553,295.303162 
	C546.668823,295.351349 591.983093,295.339691 637.297363,295.327026 
	C639.293030,295.326447 641.312134,295.350281 643.280090,295.075256 
	C649.960693,294.141663 655.782349,287.654724 656.030212,281.028107 
	C656.289429,274.096283 651.676758,267.865692 644.914612,266.360107 
	C642.834229,265.896942 640.613342,265.961090 638.456665,265.959686 
	C604.137756,265.937408 569.818909,265.943756 534.500000,265.943573 
M606.500000,572.163391 
	C618.157410,572.152222 629.817017,572.275146 641.471313,572.079834 
	C648.556519,571.961060 655.020142,565.962158 655.948425,559.195801 
	C656.903137,552.236816 652.523804,545.256592 645.705933,543.464111 
	C643.184326,542.801208 640.432861,542.852295 637.786011,542.850403 
	C592.154907,542.817017 546.523743,542.824646 500.892639,542.832275 
	C499.062042,542.832581 497.216461,542.787476 495.403473,542.991272 
	C488.463837,543.771118 483.256622,549.366028 482.864868,556.343323 
	C482.333649,565.803894 488.471130,572.116699 498.583313,572.135071 
	C534.222107,572.199890 569.861084,572.162292 606.500000,572.163391 
z"/>
<path fill="#893B43" opacity="1.000000" stroke="none" 
	d="
M259.000000,180.999557 
	C283.329315,180.999619 307.158661,180.967728 330.987915,181.007019 
	C369.603729,181.070694 401.755249,212.150970 403.101898,250.676712 
	C403.177582,252.840927 403.204132,255.007874 403.204224,257.173553 
	C403.208923,387.818146 403.208466,518.462708 403.208466,649.107300 
	C403.208466,650.925903 403.208466,652.744568 403.208466,655.031006 
	C398.147461,653.082520 393.544769,651.275635 388.916931,649.535522 
	C375.521027,644.498596 361.650299,642.279480 347.350891,642.288574 
	C278.695862,642.332153 210.040771,642.309082 141.385712,642.306213 
	C132.389847,642.305847 132.000549,641.917664 132.000504,633.076355 
	C131.999664,485.434631 131.999603,337.792938 132.000671,190.151215 
	C132.000732,181.692307 132.681641,181.001022 141.020828,181.000565 
	C180.180557,180.998383 219.340271,180.999573 259.000000,180.999557 
M261.500000,433.913330 
	C286.322144,433.913330 311.144470,433.954224 335.966278,433.861877 
	C339.090118,433.850250 342.337585,433.556305 345.307373,432.661652 
	C351.400482,430.825928 354.270905,425.925873 353.557709,419.577545 
	C352.365509,408.965302 347.202484,404.246948 336.428833,404.229492 
	C306.609039,404.181244 276.789093,404.212189 246.969193,404.212463 
	C230.143448,404.212646 213.317703,404.207977 196.491959,404.217987 
	C189.615768,404.222046 184.011932,406.619446 181.175140,413.263367 
	C176.793701,423.524902 184.170624,433.814850 196.029236,433.878418 
	C217.518936,433.993622 239.009689,433.912476 261.500000,433.913330 
M232.500015,542.825806 
	C219.841156,542.836182 207.178406,542.655457 194.524628,542.914490 
	C183.429550,543.141724 176.792709,553.885559 181.445999,563.784973 
	C184.424042,570.120361 189.791504,572.217407 196.558914,572.205505 
	C243.363708,572.122986 290.168732,572.163818 336.973694,572.154175 
	C338.470978,572.153809 339.986816,572.166077 341.462463,571.953613 
	C349.667847,570.772278 354.383759,564.592529 353.294769,556.542847 
	C352.035370,547.233276 346.912140,542.853455 336.937286,542.841980 
	C302.458252,542.802246 267.979126,542.826172 232.500015,542.825806 
M180.827728,285.342010 
	C183.252213,292.184204 188.298950,295.302032 195.349350,295.306610 
	C242.827332,295.337494 290.305450,295.374146 337.783295,295.288788 
	C347.321594,295.271637 353.269073,289.453247 353.318787,280.752747 
	C353.369141,271.940674 347.113037,265.974670 337.480377,265.965759 
	C290.335571,265.922028 243.190613,265.919830 196.045776,265.965179 
	C184.749817,265.976044 178.727737,273.329102 180.827728,285.342010 
z"/>
<path fill="#FDFCFC" opacity="1.000000" stroke="none" 
	d="
M523.000000,433.913147 
	C514.504944,433.912079 506.508606,433.999786 498.515106,433.886780 
	C489.115967,433.753937 482.939911,427.966217 482.807434,419.384827 
	C482.670105,410.492493 488.730743,404.292145 498.387939,404.269287 
	C545.691895,404.157318 592.996277,404.162659 640.300232,404.265228 
	C649.965332,404.286194 656.123962,410.448425 656.047668,419.272888 
	C655.972229,427.994476 649.635620,433.875031 639.928162,433.888672 
	C601.118896,433.943176 562.309387,433.912384 523.000000,433.913147 
z"/>
<path fill="#FFFFFF" opacity="1.000000" stroke="none" 
	d="
M535.000000,265.943573 
	C569.818909,265.943756 604.137756,265.937408 638.456665,265.959686 
	C640.613342,265.961090 642.834229,265.896942 644.914612,266.360107 
	C651.676758,267.865692 656.289429,274.096283 656.030212,281.028107 
	C655.782349,287.654724 649.960693,294.141663 643.280090,295.075256 
	C641.312134,295.350281 639.293030,295.326447 637.297363,295.327026 
	C591.983093,295.339691 546.668823,295.351349 501.354553,295.303162 
	C498.381958,295.299988 495.275330,295.279877 492.464539,294.463593 
	C485.893951,292.555450 481.995514,285.782349 482.943298,278.776947 
	C483.852051,272.060028 490.390533,266.104462 497.516388,266.006927 
	C509.842224,265.838257 522.171936,265.949646 535.000000,265.943573 
z"/>
<path fill="#FFFFFF" opacity="1.000000" stroke="none" 
	d="
M606.000000,572.163452 
	C569.861084,572.162292 534.222107,572.199890 498.583313,572.135071 
	C488.471130,572.116699 482.333649,565.803894 482.864868,556.343323 
	C483.256622,549.366028 488.463837,543.771118 495.403473,542.991272 
	C497.216461,542.787476 499.062042,542.832581 500.892639,542.832275 
	C546.523743,542.824646 592.154907,542.817017 637.786011,542.850403 
	C640.432861,542.852295 643.184326,542.801208 645.705933,543.464111 
	C652.523804,545.256592 656.903137,552.236816 655.948425,559.195801 
	C655.020142,565.962158 648.556519,571.961060 641.471313,572.079834 
	C629.817017,572.275146 618.157410,572.152222 606.000000,572.163452 
z"/>
<path fill="#FDFCFC" opacity="1.000000" stroke="none" 
	d="
M261.000000,433.913330 
	C239.009689,433.912476 217.518936,433.993622 196.029236,433.878418 
	C184.170624,433.814850 176.793701,423.524902 181.175140,413.263367 
	C184.011932,406.619446 189.615768,404.222046 196.491959,404.217987 
	C213.317703,404.207977 230.143448,404.212646 246.969193,404.212463 
	C276.789093,404.212189 306.609039,404.181244 336.428833,404.229492 
	C347.202484,404.246948 352.365509,408.965302 353.557709,419.577545 
	C354.270905,425.925873 351.400482,430.825928 345.307373,432.661652 
	C342.337585,433.556305 339.090118,433.850250 335.966278,433.861877 
	C311.144470,433.954224 286.322144,433.913330 261.000000,433.913330 
z"/>
<path fill="#FFFFFF" opacity="1.000000" stroke="none" 
	d="
M233.000031,542.825806 
	C267.979126,542.826172 302.458252,542.802246 336.937286,542.841980 
	C346.912140,542.853455 352.035370,547.233276 353.294769,556.542847 
	C354.383759,564.592529 349.667847,570.772278 341.462463,571.953613 
	C339.986816,572.166077 338.470978,572.153809 336.973694,572.154175 
	C290.168732,572.163818 243.363708,572.122986 196.558914,572.205505 
	C189.791504,572.217407 184.424042,570.120361 181.445999,563.784973 
	C176.792709,553.885559 183.429550,543.141724 194.524628,542.914490 
	C207.178406,542.655457 219.841156,542.836182 233.000031,542.825806 
z"/>
<path fill="#FFFFFF" opacity="1.000000" stroke="none" 
	d="
M180.689423,284.962738 
	C178.727737,273.329102 184.749817,265.976044 196.045776,265.965179 
	C243.190613,265.919830 290.335571,265.922028 337.480377,265.965759 
	C347.113037,265.974670 353.369141,271.940674 353.318787,280.752747 
	C353.269073,289.453247 347.321594,295.271637 337.783295,295.288788 
	C290.305450,295.374146 242.827332,295.337494 195.349350,295.306610 
	C188.298950,295.302032 183.252213,292.184204 180.689423,284.962738 
z"/>
</svg>